<svg width="150" height="150" viewBox="0 0 150 150" fill="none" xmlns="http://www.w3.org/2000/svg">
<rect width="150" height="150" rx="6" fill="#F0F0F0"/>
<path d="M19.1552 47.6379L11 66.9138H19.8966L24.3448 59.5L19.1552 47.6379Z" fill="#B03E40"/>
<path d="M31.0172 39.4828H22.8621L33.2414 66.9138H42.1379L31.0172 39.4828Z" fill="#B03E40"/>
<path d="M48.069 38.7414V44.6724L65.8621 66.9138H73.2759V62.4655L54 38.7414H48.069Z" fill="#B03E40"/>
<path d="M48.069 66.9138V54.3103L55.4828 61.7241V66.9138H48.069Z" fill="#B03E40"/>
<path d="M73.2759 38.7414H65.8621V44.6724L73.2759 52.0862V38.7414Z" fill="#B03E40"/>
<path d="M89.5862 44.6724L82.1724 38H104.414V44.6724H89.5862Z" fill="#B03E40"/>
<path d="M82.1724 66.9138V46.1552L89.5862 50.6034H102.931V55.0517H89.5862V66.9138H82.1724Z" fill="#B03E40"/>
<path d="M116.276 49.1207L108.862 66.9138H116.276L121.466 58.0172L116.276 49.1207Z" fill="#B03E40"/>
<path d="M131.845 66.9138L119.983 38H127.397L140 66.9138H131.845Z" fill="#B03E40"/>
<path d="M39.465 97.6093V101.901C37.9079 102.711 36.3191 103.331 34.6986 103.762C33.0909 104.18 31.4957 104.389 29.9133 104.389C28.3941 104.389 26.9446 104.192 25.5646 103.8C24.1847 103.395 22.8808 102.8 21.6528 102.015C19.6779 100.724 18.1397 99.0778 17.0383 97.0775C15.9496 95.0647 15.4052 92.8809 15.4052 90.5261C15.4052 88.7411 15.766 87.0131 16.4876 85.342C17.2092 83.6582 18.2347 82.1897 19.5639 80.9364C20.9818 79.5945 22.5706 78.5944 24.3303 77.9361C26.09 77.2651 28.0396 76.9296 30.1791 76.9296C31.673 76.9296 33.1541 77.1005 34.6227 77.4423C36.0912 77.7841 37.6294 78.3222 39.2371 79.0564V83.1772C37.5534 82.2657 35.9709 81.5947 34.4897 81.1643C33.0086 80.7212 31.5717 80.4996 30.1791 80.4996C27.0775 80.4996 24.5139 81.4681 22.4883 83.4051C20.4628 85.3293 19.45 87.7473 19.45 90.6591C19.45 93.5328 20.4438 95.9382 22.4314 97.8751C24.4316 99.7994 26.9382 100.762 29.9512 100.762C31.4957 100.762 33.0592 100.502 34.6417 99.983C36.2241 99.4639 37.8319 98.6727 39.465 97.6093ZM43.9655 103.914V77.3474H47.7255V100.496H60.3725V103.914H43.9655ZM63.6008 103.914V77.3474H67.3987V103.914H63.6008ZM73.2095 103.914V77.3474H76.5137L94.0031 97.9701V77.3474H97.782V103.914H94.4018L76.9694 83.2721V103.914H73.2095ZM103.593 103.914V77.3474H107.391V103.914H103.593ZM135.818 97.6093V101.901C134.261 102.711 132.672 103.331 131.052 103.762C129.444 104.18 127.849 104.389 126.266 104.389C124.747 104.389 123.298 104.192 121.918 103.8C120.538 103.395 119.234 102.8 118.006 102.015C116.031 100.724 114.493 99.0778 113.391 97.0775C112.303 95.0647 111.758 92.8809 111.758 90.5261C111.758 88.7411 112.119 87.0131 112.841 85.342C113.562 83.6582 114.588 82.1897 115.917 80.9364C117.335 79.5945 118.924 78.5944 120.683 77.9361C122.443 77.2651 124.393 76.9296 126.532 76.9296C128.026 76.9296 129.507 77.1005 130.976 77.4423C132.444 77.7841 133.982 78.3222 135.59 79.0564V83.1772C133.906 82.2657 132.324 81.5947 130.843 81.1643C129.362 80.7212 127.925 80.4996 126.532 80.4996C123.431 80.4996 120.867 81.4681 118.841 83.4051C116.816 85.3293 115.803 87.7473 115.803 90.6591C115.803 93.5328 116.797 95.9382 118.784 97.8751C120.785 99.7994 123.291 100.762 126.304 100.762C127.849 100.762 129.412 100.502 130.995 99.983C132.577 99.4639 134.185 98.6727 135.818 97.6093Z" fill="#555E6D"/>
</svg>
